<?xml version="1.0" encoding="UTF-8"?>
<svg id="_レイヤー_2" data-name="レイヤー 2" xmlns="http://www.w3.org/2000/svg" viewBox="0 0 80.17 80.32" class="text-[#6e6e73] hover:text-[#1d1d1f] transition" style="fill:#6e6e73">
  <defs>
    <style>
      .cls-1 {
        stroke-width: 0px;
      }
    </style>
  </defs>
  <g id="_レイヤー_1-2" data-name="レイヤー 1">
    <g id="Symbols">
      <path class="cls-1" d="m39.46,24.58l-4.55,4.6c5.41.2,8.95,1.77,11.69,4.51,6.79,6.79,6.75,16.46-.02,23.23l-12.47,12.47c-6.81,6.78-16.48,6.83-23.25.09-6.82-6.83-6.75-16.48.04-23.26l8.26-8.24c-.92-2.09-1.17-4.65-.76-6.93l-11.62,11.63c-9,8.95-9.09,21.74.03,30.83,9.09,9.13,21.85,9.02,30.83.05l13.07-13.1c8.95-8.95,9.05-21.72-.03-30.83-2.65-2.65-5.95-4.38-11.22-5.05Zm1.25,31.13l4.52-4.57c-5.41-.2-8.95-1.77-11.64-4.51-6.8-6.79-6.77-16.46,0-23.23l12.48-12.47c6.8-6.78,16.46-6.86,23.23-.09,6.8,6.83,6.74,16.48-.04,23.26l-8.24,8.24c.9,2.09,1.15,4.65.75,6.93l11.63-11.63c8.98-8.98,9.08-21.74-.03-30.83-9.11-9.13-21.89-9.02-30.83-.05l-13.07,13.1c-8.97,8.95-9.09,21.72.03,30.83,2.63,2.65,5.93,4.38,11.21,5.02Z"/>
    </g>
  </g>
</svg>
