<?xml version="1.0" encoding="UTF-8"?>
<svg id="_レイヤー_2" data-name="レイヤー 2" xmlns="http://www.w3.org/2000/svg" viewBox="0 0 85.3 66.7" class="text-[#6e6e73] hover:text-[#1d1d1f] transition" style="fill:#6e6e73">
  <defs>
    <style>
      .cls-1 {
        stroke-width: 0px;
      }
    </style>
  </defs>
  <g id="_レイヤー_1-2" data-name="レイヤー 1">
    <g id="Symbols">
      <g id="Regular-S">
        <path class="cls-1 text-[#6e6e73] hover:text-[#1d1d1f] transition" d="m42.68,37.5c1.61,0,3.03-.73,4.74-2.49L80.81,1.95c-1.51-1.32-4.2-1.95-7.96-1.95H11.08c-3.17,0-5.42.59-6.69,1.81l33.5,33.2c1.71,1.76,3.17,2.49,4.79,2.49ZM.88,60.16l26.95-26.86L.83,6.59c-.54,1.12-.83,2.98-.83,5.66v42.19c0,2.69.29,4.59.88,5.71Zm11.57,6.54h61.77c3.12,0,5.32-.59,6.64-1.76l-27.59-27.54-2.44,2.44c-2.73,2.64-5.27,3.86-8.15,3.86s-5.42-1.22-8.2-3.86l-2.39-2.44-27.49,27.44c1.51,1.22,4.15,1.86,7.86,1.86Zm71.97-6.54c.59-1.12.88-3.03.88-5.71V12.26c0-2.64-.29-4.49-.88-5.62l-26.95,26.66,26.95,26.86Z"/>
      </g>
    </g>
  </g>
</svg>
