<?xml version="1.0" encoding="UTF-8"?>
<svg id="_レイヤー_2" data-name="レイヤー 2" xmlns="http://www.w3.org/2000/svg" viewBox="0 0 68.7 87.11" class="text-[#6e6e73] hover:text-[#1d1d1f] transition" style="fill:#6e6e73">
  <defs>
    <style>
      .cls-1 {
        stroke-width: 0px;
      }
    </style>
  </defs>
  <g id="_レイヤー_1-2" data-name="レイヤー 1">
    <g id="Symbols">
      <g id="Regular-S">
        <path class="cls-1 text-[#6e6e73] hover:text-[#1d1d1f] transition" d="m12.45,87.11h43.8c8.35,0,12.45-4.1,12.45-12.3v-36.62c0-8.2-4.1-12.3-12.45-12.3h-17.53v27.59c0,2.34-2,4.3-4.39,4.3s-4.39-1.95-4.39-4.3v-27.59H12.45c-8.3,0-12.45,4.1-12.45,12.3v36.62c0,8.2,4.15,12.3,12.45,12.3Zm21.88-57.76c1.9,0,3.52-1.56,3.52-3.42v-10.6l-.29-5.86,2.05,2.25,5.37,5.81c.63.68,1.51,1.03,2.34,1.03,1.86,0,3.22-1.27,3.22-3.03,0-.98-.39-1.66-1.07-2.29L36.87,1.17c-.88-.88-1.61-1.17-2.54-1.17-.88,0-1.61.29-2.54,1.17l-12.6,12.06c-.63.63-1.03,1.32-1.03,2.29,0,1.76,1.32,3.03,3.17,3.03.83,0,1.76-.34,2.39-1.03l5.37-5.81,2.05-2.25-.29,5.86v10.6c0,1.86,1.61,3.42,3.47,3.42Z"/>
      </g>
    </g>
  </g>
</svg>
